<?xml version="1.0" encoding="UTF-8"?>
<svg width="200" height="200" viewBox="0 0 200 200" fill="none" xmlns="http://www.w3.org/2000/svg">
  <!-- Fondo del logo de GitHub -->
  <circle cx="100" cy="100" r="80" fill="#24292E"/>
  
  <!-- Silueta de octocat -->
  <path d="M100 48C71.4 48 48 71.4 48 100C48 123.0 63.3 142.5 84.9 148.8C87.9 149.4 89.1 147.6 89.1 146.1C89.1 144.6 89.1 140.7 89.1 135.9C73.2 139.5 70.2 128.1 70.2 128.1C67.8 121.5 64.2 119.7 64.2 119.7C59.4 116.4 64.5 116.4 64.5 116.4C69.9 116.7 72.9 122.1 72.9 122.1C77.7 131.1 85.8 128.4 89.4 126.9C89.7 123.0 91.2 120.3 92.7 118.8C80.1 117.3 66.9 112.5 66.9 92.7C66.9 86.1 69.3 80.7 72.9 76.5C72.3 75.0 70.2 68.7 73.5 61.8C73.5 61.8 78.0 60.3 89.1 67.8C92.4 66.6 96.3 66.0 100.0 66.0C103.7 66.0 107.6 66.6 111.0 67.8C122.1 60.3 126.6 61.8 126.6 61.8C129.9 68.7 127.8 75.0 127.2 76.5C130.8 80.7 133.2 86.1 133.2 92.7C133.2 112.5 120.0 117.0 107.4 118.5C109.5 120.3 111.3 124.2 111.3 129.9C111.3 138.3 111.0 144.0 111.0 146.1C111.0 147.6 112.2 149.4 115.2 148.8C136.8 142.5 152.1 123.0 152.1 100.0C152.1 71.4 128.7 48 100.0 48Z" fill="white"/>
  
  <!-- Texto de "Pages" -->
  <path d="M92.7 147.3C92.7 147.3 92.1 147.6 91.5 147.6C90.9 147.6 90.3 147.3 90.3 147.3C90.3 147.3 90.9 147.0 91.5 147.0C92.1 147.0 92.7 147.3 92.7 147.3Z" fill="white"/>
  <path d="M96.3 148.5C96.0 148.8 95.1 148.5 94.5 148.2C93.9 147.9 93.6 147.3 93.9 147.0C94.2 146.7 95.1 147.0 95.7 147.3C96.3 147.6 96.6 148.2 96.3 148.5Z" fill="white"/>
  <path d="M99.3 149.4C98.7 149.7 97.8 149.4 97.2 148.8C96.6 148.2 96.6 147.3 97.2 147.0C97.8 146.7 98.7 147.0 99.3 147.6C99.9 148.2 99.9 149.1 99.3 149.4Z" fill="white"/>
  <path d="M103.5 150.6C103.2 151.2 102.3 151.2 101.4 150.9C100.5 150.6 100.0 149.7 100.3 149.1C100.6 148.5 101.5 148.5 102.4 148.8C103.3 149.1 103.8 150.0 103.5 150.6Z" fill="white"/>
  <path d="M109.2 151.2C109.5 151.8 108.6 152.4 107.7 152.4C106.5 152.4 106.0 151.8 105.9 151.2C105.8 150.6 106.7 150.0 107.6 150.0C108.8 150.0 109.3 150.6 109.4 151.2H109.2Z" fill="white"/>
  <path d="M115.2 150.6C115.2 151.2 114.6 151.8 113.4 152.1C112.2 152.4 111.3 152.1 111.3 151.5C111.3 150.9 111.9 150.3 113.1 150.0C114.3 149.7 115.2 150.0 115.2 150.6Z" fill="white"/>
  
  <!-- Página web estilizada -->
  <rect x="115" y="60" width="45" height="55" rx="4" fill="#1D1F21" stroke="#505050" stroke-width="1"/>
  <rect x="122" y="68" width="30" height="4" rx="2" fill="#FAFBFC"/>
  <rect x="122" y="76" width="20" height="4" rx="2" fill="#79B8FF"/>
  <rect x="122" y="84" width="30" height="4" rx="2" fill="#FAFBFC"/>
  <rect x="122" y="92" width="25" height="4" rx="2" fill="#79B8FF"/>
  <rect x="122" y="100" width="30" height="4" rx="2" fill="#FAFBFC"/>
</svg>