<?xml version="1.0" encoding="UTF-8"?>
<svg width="400" height="100" viewBox="0 0 400 100" fill="none" xmlns="http://www.w3.org/2000/svg">
  <!-- Python Icon -->
  <g transform="translate(20, 10)">
    <path d="M29.5 0C14.5 0 15.3 6.2 15.3 6.2L15.3 12.9H29.9V14.8H9.7C9.7 14.8 0 13.7 0 28.7C0 43.7 8.5 43.1 8.5 43.1H13.7V36.1C13.7 36.1 13.3 27.6 22.1 27.6H36.5C36.5 27.6 44.7 27.8 44.7 19.7V7.2C44.7 7.2 46.1 0 29.5 0ZM21.7 4.6C23.3 4.6 24.6 5.9 24.6 7.5C24.6 9.1 23.3 10.4 21.7 10.4C20.1 10.4 18.8 9.1 18.8 7.5C18.8 5.9 20.1 4.6 21.7 4.6Z" fill="#3776AB"/>
    <path d="M29.5 60C44.5 60 43.7 53.8 43.7 53.8L43.7 47.1H29.1V45.2H49.3C49.3 45.2 59 46.3 59 31.3C59 16.3 50.5 16.9 50.5 16.9H45.3V23.9C45.3 23.9 45.7 32.4 36.9 32.4H22.5C22.5 32.4 14.3 32.2 14.3 40.3V52.8C14.3 52.8 12.9 60 29.5 60ZM37.3 55.4C35.7 55.4 34.4 54.1 34.4 52.5C34.4 50.9 35.7 49.6 37.3 49.6C38.9 49.6 40.2 50.9 40.2 52.5C40.2 54.1 38.9 55.4 37.3 55.4Z" fill="#3776AB"/>
  </g>
  
  <!-- HTML Icon -->
  <g transform="translate(100, 10)">
    <path d="M8 0L12.3 54.8L29.5 60L46.7 54.8L51 0H8Z" fill="#E44D26"/>
    <path d="M29.5 55.3L43.2 51.1L46.7 4.4H29.5V55.3Z" fill="#F16529"/>
    <path d="M29.5 24.4H21.8L21.2 17.7H29.5V11.2H14.1L14.2 12.5L15.9 32.2H29.5V24.4Z" fill="#EBEBEB"/>
    <path d="M29.5 42.2L29.5 42.2L23.2 40.6L22.8 35.5H16.2L17.1 45.6L29.5 49.2L29.5 42.2Z" fill="#EBEBEB"/>
    <path d="M29.5 24.4V32.2H36.6L35.8 40.6L29.5 42.2V49.2L41.9 45.6L42 44.2L43.6 26.9L43.8 24.4H29.5Z" fill="white"/>
    <path d="M29.5 11.2V17.7H44.1L44.4 14.5L44.8 12.5L44.9 11.2H29.5Z" fill="white"/>
  </g>
  
  <!-- CSS Icon -->
  <g transform="translate(180, 10)">
    <path d="M8 0L12.3 54.8L29.5 60L46.7 54.8L51 0H8Z" fill="#1572B6"/>
    <path d="M29.5 55.3L43.2 51.1L46.7 4.4H29.5V55.3Z" fill="#33A9DC"/>
    <path d="M41.9 17.7H29.5V24.4H41.2L40.5 32.2H29.5V38.9H40.1L39.2 48.1L29.5 50.9V57.8L47.7 52.2L49.3 17.7H41.9Z" fill="white"/>
    <path d="M29.5 38.9H29.5L21.3 36.7L20.8 30.5H14.1L15.2 43.3L29.5 48.1V38.9Z" fill="#EBEBEB"/>
    <path d="M30.9 17.7H29.5H17.1L17.8 24.4H29.5V17.7H30.9Z" fill="#EBEBEB"/>
    <path d="M29.5 32.2H29.5L21.8 30.5L21.4 24.4H14.7L16.5 37.2L29.5 41.1V32.2Z" fill="#EBEBEB"/>
  </g>
  
  <!-- JavaScript Icon -->
  <g transform="translate(260, 10)">
    <path d="M0 0H60V60H0V0Z" fill="#F7DF1E"/>
    <path d="M39.5 46.3C40.8 48.5 42.5 50.1 45.8 50.1C48.6 50.1 50.3 48.8 50.3 46.8C50.3 44.4 48.4 43.6 45.4 42.2L43.8 41.5C39.1 39.3 36.1 36.5 36.1 31.1C36.1 26.2 40 22.3 45.6 22.3C49.6 22.3 52.5 23.7 54.6 27.5L49.7 30.5C48.7 28.6 47.6 27.8 45.6 27.8C43.5 27.8 42.4 28.9 42.4 30.5C42.4 32.5 43.5 33.3 46.3 34.6L47.9 35.3C53.4 37.9 56.4 40.6 56.4 46.2C56.4 52 51.6 55.7 46 55.7C40.5 55.7 37 52.7 35 48.9L39.5 46.3ZM20.9 46.8C21.8 48.4 22.6 49.7 24.6 49.7C26.5 49.7 27.7 48.9 27.7 45.9V22.9H34.1V46C34.1 52.5 30.3 55.6 24.9 55.6C20 55.6 17.2 52.8 15.7 49.5L20.9 46.8Z" fill="black"/>
  </g>

  <!-- Replit Agent Symbol -->
  <g transform="translate(340, 10)">
    <circle cx="30" cy="30" r="30" fill="#F26207"/>
    <path d="M30 15C24.5 15 20 19.5 20 25C20 30.5 24.5 35 30 35C35.5 35 40 30.5 40 25C40 19.5 35.5 15 30 15ZM30 33C25.6 33 22 29.4 22 25C22 20.6 25.6 17 30 17C34.4 17 38 20.6 38 25C38 29.4 34.4 33 30 33Z" fill="white"/>
    <path d="M30 40C24.5 40 20 44.5 20 50C20 55.5 24.5 60 30 60C35.5 60 40 55.5 40 50C40 44.5 35.5 40 30 40ZM30 58C25.6 58 22 54.4 22 50C22 45.6 25.6 42 30 42C34.4 42 38 45.6 38 50C38 54.4 34.4 58 30 58Z" fill="white"/>
    <path d="M45 35C41.7 35 39 37.7 39 41C39 44.3 41.7 47 45 47C48.3 47 51 44.3 51 41C51 37.7 48.3 35 45 35ZM45 45C42.8 45 41 43.2 41 41C41 38.8 42.8 37 45 37C47.2 37 49 38.8 49 41C49 43.2 47.2 45 45 45Z" fill="white"/>
    <path d="M15 35C11.7 35 9 37.7 9 41C9 44.3 11.7 47 15 47C18.3 47 21 44.3 21 41C21 37.7 18.3 35 15 35ZM15 45C12.8 45 11 43.2 11 41C11 38.8 12.8 37 15 37C17.2 37 19 38.8 19 41C19 43.2 17.2 45 15 45Z" fill="white"/>
    <path d="M30 17L30 33" stroke="white" stroke-width="2" stroke-dasharray="2 2"/>
    <path d="M30 42L30 58" stroke="white" stroke-width="2" stroke-dasharray="2 2"/>
    <path d="M19 41L41 41" stroke="white" stroke-width="2" stroke-dasharray="2 2"/>
  </g>
</svg>