<?xml version="1.0" encoding="UTF-8"?>
<svg width="200" height="200" viewBox="0 0 200 200" fill="none" xmlns="http://www.w3.org/2000/svg">
  <!-- Fondo del logo de Replit -->
  <rect x="43" y="31" width="114" height="138" rx="10" fill="#F26207"/>
  
  <!-- Círculos del logo de Replit -->
  <circle cx="93" cy="76" r="10" fill="white"/>
  <circle cx="93" cy="124" r="10" fill="white"/>
  <circle cx="127" cy="100" r="10" fill="white"/>
  
  <!-- Cerebro / Redes neuronales -->
  <path d="M142 60C152.389 66.9763 159.444 77.7613 161.612 90C163.779 102.239 160.899 114.874 153.615 125C146.331 135.126 135.201 142.02 122.72 144.228C110.24 146.435 97.4106 143.769 87 136.782" stroke="white" stroke-width="4" stroke-linecap="round" stroke-dasharray="4 6"/>
  
  <!-- Conexiones neuronales -->
  <line x1="93" y1="76" x2="127" y2="100" stroke="white" stroke-width="2" stroke-dasharray="3 2"/>
  <line x1="93" y1="124" x2="127" y2="100" stroke="white" stroke-width="2" stroke-dasharray="3 2"/>
  <line x1="93" y1="76" x2="120" y2="60" stroke="white" stroke-width="2" stroke-dasharray="3 2"/>
  <line x1="93" y1="124" x2="118" y2="140" stroke="white" stroke-width="2" stroke-dasharray="3 2"/>
  <line x1="127" y1="100" x2="150" y2="90" stroke="white" stroke-width="2" stroke-dasharray="3 2"/>
  <line x1="127" y1="100" x2="150" y2="110" stroke="white" stroke-width="2" stroke-dasharray="3 2"/>
  
  <!-- Nodos adicionales -->
  <circle cx="120" cy="60" r="5" fill="#8d69f1"/>
  <circle cx="118" cy="140" r="5" fill="#8d69f1"/>
  <circle cx="150" cy="90" r="5" fill="#8d69f1"/>
  <circle cx="150" cy="110" r="5" fill="#8d69f1"/>
</svg>