<?xml version="1.0" encoding="UTF-8"?>
<svg width="48" height="48" viewBox="0 0 48 48" fill="none" xmlns="http://www.w3.org/2000/svg">
  <path d="M38.6667 20.3334C38.6668 18.8889 38.2349 17.4765 37.4265 16.2854C36.6181 15.0943 35.4706 14.1787 34.1334 13.6534V13.6534C34.1334 10.5934 32.9158 7.65961 30.7404 5.48425C28.5651 3.30888 25.6313 2.09131 22.5713 2.09131C19.5113 2.09131 16.5775 3.30888 14.4021 5.48425C12.2268 7.65961 11.0092 10.5934 11.0092 13.6534V13.6534C9.67196 14.1787 8.52446 15.0943 7.71609 16.2854C6.90771 17.4765 6.47578 18.8889 6.47595 20.3334C6.47595 22.4001 7.29449 24.3819 8.75228 25.8397C10.2101 27.2975 12.1919 28.116 14.2586 28.116H14.6667V36.8107C14.6667 37.1476 14.7515 37.4783 14.9114 37.7701C15.0713 38.0618 15.3006 38.3047 15.5783 38.4752C15.856 38.6457 16.1729 38.7382 16.4963 38.7438C16.8197 38.7494 17.1392 38.6679 17.4226 38.5067L24.084 34.9334L30.7454 38.5067C31.0288 38.6679 31.3483 38.7494 31.6717 38.7438C31.9951 38.7382 32.3119 38.6457 32.5896 38.4752C32.8674 38.3047 33.0967 38.0618 33.2566 37.7701C33.4165 37.4783 33.5013 37.1476 33.5013 36.8107V28.116H33.9094C35.9761 28.116 37.9579 27.2975 39.4157 25.8397C40.8735 24.3819 41.692 22.4001 41.692 20.3334H38.6667Z" fill="#F26207"/>
  <path d="M25.5107 22.7469H22.4853V25.7723H19.46V22.7469H16.4346V19.7215H19.46V16.6961H22.4853V19.7215H25.5107V22.7469Z" fill="white"/>
  <path d="M31.5614 19.7215H28.5361V16.6961H31.5614V19.7215Z" fill="white"/>
  <path d="M31.5614 25.7723H28.5361V22.7469H31.5614V25.7723Z" fill="white"/>
</svg>