<?xml version="1.0" encoding="UTF-8"?>
<svg width="32" height="32" viewBox="0 0 32 32" fill="none" xmlns="http://www.w3.org/2000/svg">
<path d="M7.10417 25.8333V6.16663C7.10417 5.94562 7.19173 5.73365 7.34801 5.57737C7.50429 5.42109 7.71626 5.33329 7.9375 5.33329H24.0625C24.2837 5.33329 24.4957 5.42109 24.652 5.57737C24.8083 5.73365 24.8958 5.94562 24.8958 6.16663V25.8333C24.8958 26.0543 24.8083 26.2663 24.652 26.4226C24.4957 26.5788 24.2837 26.6666 24.0625 26.6666H7.9375C7.71626 26.6666 7.50429 26.5788 7.34801 26.4226C7.19173 26.2663 7.10417 26.0543 7.10417 25.8333Z" fill="#F26207"/>
<path d="M14.8958 13.75C15.5592 13.75 16.0833 13.2258 16.0833 12.5625C16.0833 11.8992 15.5592 11.375 14.8958 11.375C14.2325 11.375 13.7083 11.8992 13.7083 12.5625C13.7083 13.2258 14.2325 13.75 14.8958 13.75Z" fill="white"/>
<path d="M14.8958 20.625C15.5592 20.625 16.0833 20.1008 16.0833 19.4375C16.0833 18.7742 15.5592 18.25 14.8958 18.25C14.2325 18.25 13.7083 18.7742 13.7083 19.4375C13.7083 20.1008 14.2325 20.625 14.8958 20.625Z" fill="white"/>
<path d="M18.1042 17.1875C18.7675 17.1875 19.2917 16.6633 19.2917 16C19.2917 15.3367 18.7675 14.8125 18.1042 14.8125C17.4408 14.8125 16.9167 15.3367 16.9167 16C16.9167 16.6633 17.4408 17.1875 18.1042 17.1875Z" fill="white"/>
</svg>